# xmcd
#
# Track frame offsets: 
#        150
#        25380
#        42630
#        59168
#        77048
#        87548
#        101378
#        114308
#        130800
#        145005
#        160530
#
# Disc length: 2616 seconds
#
# Revision: 4
# Processed by: cddbd v1.5.2PL0 Copyright (c) Steve Scherf et al.
# Submitted via: ExactAudioCopy v0.99pb5
#
DISCID=900a360b
DTITLE=White, Tony Joe - Tony Joe
DYEAR=1970
DGENRE=Swamp
TTITLE0=Stud-Spider
TTITLE1=High Sheriff of Calhoun Parrish
TTITLE2=Widow Wimberly
TTITLE3=Conjure Woman
TTITLE4=Save Your Sugar For Me
TTITLE5=Groupy Girl
TTITLE6=Hard To Handle
TTITLE7=What Does It Take (To Win Your Love)
TTITLE8=My Friend
TTITLE9=Stockholm Blues
TTITLE10=Boom Boom
EXTD=YEAR: 1970
EXTT0=
EXTT1=
EXTT2=
EXTT3=
EXTT4=
EXTT5=
EXTT6=
EXTT7=
EXTT8=
EXTT9=
EXTT10=
PLAYORDER=
